<?xml version="1.0" encoding="utf-8"?>
<!-- Generator: Adobe Illustrator 23.0.2, SVG Export Plug-In . SVG Version: 6.00 Build 0)  -->
<svg version="1.1" id="Layer_1" xmlns="http://www.w3.org/2000/svg" xmlns:xlink="http://www.w3.org/1999/xlink" x="0px" y="0px"
	 viewBox="0 0 686 594" style="enable-background:new 0 0 686 594;" xml:space="preserve">
<style type="text/css">
	.st0{fill:none;stroke:#000000;stroke-width:10.27;stroke-linecap:round;stroke-miterlimit:10;}
	.st1{fill:#FFFFFF;}
	.st2{fill:none;stroke:#000000;stroke-width:8.558;stroke-linecap:round;stroke-miterlimit:10;}
	.st3{fill:#702662;}
	.st4{fill:#973080;}
	.st5{fill:#FFFFFF;stroke:#000000;stroke-width:12;stroke-miterlimit:10;}
	.st6{fill:#CC8723;}
	.st7{fill:#F5A623;}
	.st8{fill:#74BB25;}
	.st9{fill:#568B1B;}
	.st10{fill:none;stroke:#E07900;stroke-width:9;stroke-miterlimit:10;}
	.st11{fill:#E07900;}
	.st12{fill:none;stroke:#4E0073;stroke-width:9;stroke-miterlimit:10;}
	.st13{fill:#FFFFFF;stroke:#4E0073;stroke-width:9;stroke-miterlimit:10;}
	.st14{fill:#4E0073;}
	.st15{fill:none;stroke:#74BB25;stroke-width:9;stroke-miterlimit:10;}
	.st16{fill:none;stroke:#74BB25;stroke-width:9;stroke-linecap:round;stroke-miterlimit:10;}
	.st17{fill:none;stroke:#74BB25;stroke-width:9;stroke-linecap:round;stroke-linejoin:round;stroke-miterlimit:10;}
	.st18{fill:none;stroke:#74BB25;stroke-width:8;stroke-linecap:round;stroke-miterlimit:10;}
	.st19{fill:none;stroke:#74BB25;stroke-width:5;stroke-linecap:round;stroke-linejoin:round;stroke-miterlimit:10;}
	.st20{fill:none;stroke:#74BB25;stroke-width:6;stroke-linecap:round;stroke-linejoin:round;stroke-miterlimit:10;}
</style>
<path class="st8" d="M505.26,380.81H384.74c-13.01,0-23.55-10.54-23.55-23.55V236.74c0-13.01,10.54-23.55,23.55-23.55h120.52
	c13.01,0,23.55,10.54,23.55,23.55v120.52C528.81,370.26,518.26,380.81,505.26,380.81z"/>
<path class="st8" d="M702.45,380.81H581.93c-13.01,0-23.55-10.54-23.55-23.55V236.74c0-13.01,10.54-23.55,23.55-23.55h120.52
	c13.01,0,23.55,10.54,23.55,23.55v120.52C726,370.26,715.46,380.81,702.45,380.81z"/>
<path class="st8" d="M308.07,380.81H187.55c-13.01,0-23.55-10.54-23.55-23.55V236.74c0-13.01,10.54-23.55,23.55-23.55h120.52
	c13.01,0,23.55,10.54,23.55,23.55v120.52C331.61,370.26,321.07,380.81,308.07,380.81z"/>
<path class="st8" d="M361.19,554.45V433.93c0-13.01,10.54-23.55,23.55-23.55h120.52c13.01,0,23.55,10.54,23.55,23.55v120.52
	c0,13.01-10.54,23.55-23.55,23.55H384.74C371.74,578,361.19,567.46,361.19,554.45z"/>
<path class="st8" d="M361.19,160.07V39.55c0-13.01,10.54-23.55,23.55-23.55h120.52c13.01,0,23.55,10.54,23.55,23.55v120.52
	c0,13.01-10.54,23.55-23.55,23.55H384.74C371.74,183.61,361.19,173.07,361.19,160.07z"/>
</svg>
