<?xml version="1.0" encoding="utf-8"?>
<!-- Generator: Adobe Illustrator 23.0.2, SVG Export Plug-In . SVG Version: 6.00 Build 0)  -->
<svg version="1.1" id="Layer_1" xmlns="http://www.w3.org/2000/svg" xmlns:xlink="http://www.w3.org/1999/xlink" x="0px" y="0px"
	 viewBox="0 0 1402 601" style="enable-background:new 0 0 1402 601;" xml:space="preserve">
<style type="text/css">
	.st0{fill:#0F0F0F;}
	.st1{fill:#CECECE;}
	.st2{fill:#B7B7B7;}
	.st3{fill:#13293D;}
	.st4{fill:#6D6D6D;}
	.st5{fill:#4C4C4C;}
	.st6{fill:none;stroke:#CCCCCC;stroke-width:6;stroke-miterlimit:10;}
	.st7{fill:none;stroke:#000000;stroke-width:10.27;stroke-linecap:round;stroke-miterlimit:10;}
	.st8{fill:#FFFFFF;}
	.st9{fill:none;stroke:#000000;stroke-width:8.558;stroke-linecap:round;stroke-miterlimit:10;}
	.st10{fill:#74BB25;}
	.st11{fill:#568B1B;}
	.st12{fill:#E07900;}
	.st13{fill:#F5A623;}
	.st14{fill:#973080;}
	.st15{fill:#4E0073;}
	.st16{fill:#702662;}
	.st17{fill:#FFFFFF;stroke:#000000;stroke-width:12;stroke-miterlimit:10;}
	.st18{fill:#CC8723;}
	.st19{fill:none;stroke:#E07900;stroke-width:9;stroke-miterlimit:10;}
	.st20{fill:none;stroke:#4E0073;stroke-width:9;stroke-miterlimit:10;}
	.st21{fill:#FFFFFF;stroke:#4E0073;stroke-width:9;stroke-miterlimit:10;}
	.st22{fill:none;stroke:#74BB25;stroke-width:9;stroke-miterlimit:10;}
	.st23{fill:none;stroke:#74BB25;stroke-width:9;stroke-linecap:round;stroke-miterlimit:10;}
	.st24{fill:none;stroke:#74BB25;stroke-width:9;stroke-linecap:round;stroke-linejoin:round;stroke-miterlimit:10;}
	.st25{fill:none;stroke:#74BB25;stroke-width:8;stroke-linecap:round;stroke-miterlimit:10;}
	.st26{fill:none;stroke:#74BB25;stroke-width:5;stroke-linecap:round;stroke-linejoin:round;stroke-miterlimit:10;}
	.st27{fill:none;stroke:#74BB25;stroke-width:6;stroke-linecap:round;stroke-linejoin:round;stroke-miterlimit:10;}
	.st28{fill:#C2C622;}
	.st29{fill:#F2A423;}
	.st30{fill:#F2A422;}
	.st31{fill:#353535;stroke:#CCCCCC;stroke-width:7;stroke-miterlimit:10;}
	.st32{fill:#F1A322;}
	.st33{fill:#498DDE;}
	.st34{fill:#73BA24;}
	.st35{fill:#942F7E;}
	.st36{fill:#32679B;}
	.st37{fill:none;stroke:#497016;stroke-width:9;stroke-linecap:round;stroke-miterlimit:10;}
	.st38{fill:none;stroke:#FFFFFF;stroke-width:9;stroke-miterlimit:10;}
	.st39{fill:none;stroke:#FFFFFF;stroke-width:9;stroke-linecap:round;stroke-miterlimit:10;}
	.st40{fill:#353535;}
	.st41{fill:#497016;}
	.st42{fill:#CCCCCC;}
	.st43{fill:#F5A624;}
	.st44{fill:#973180;}
	.st45{fill:#76BD26;}
	.st46{fill:#4B90E2;}
	.st47{fill:#E7D81C;}
	.st48{fill:none;stroke:#6D6D6D;stroke-width:4;stroke-linecap:round;stroke-miterlimit:10;}
	.st49{fill:none;stroke:#FFFFFF;stroke-width:4;stroke-linecap:round;stroke-miterlimit:10;}
	.st50{fill:#4C91E2;}
	.st51{fill:#983181;}
	.st52{fill:none;stroke:#13293D;stroke-width:14;stroke-linecap:round;stroke-miterlimit:10;}
</style>
<polygon class="st33" points="175.27,102.55 329.49,102.55 406.61,236.12 329.49,369.68 175.27,369.68 98.15,236.12 "/>
<polygon class="st3" points="1148.66,102.55 1302.89,102.55 1380,236.12 1302.89,369.68 1148.66,369.68 1071.54,236.12 "/>
<g>
	<g>
		<g>
			<path class="st40" d="M22,17.28h10.47c7.38,0,12.85,2.56,12.85,10.25c0,7.41-5.49,10.77-12.65,10.77H27.9v12.22H22V17.28z
				 M32.19,33.58c4.96,0,7.32-1.97,7.32-6.06c0-4.13-2.58-5.53-7.52-5.53H27.9v11.59H32.19z"/>
		</g>
		<g>
			<path class="st40" d="M47.8,43.81c0-5.35,4.43-8.13,14.68-9.23c-0.08-2.68-1.16-4.92-4.53-4.92c-2.48,0-4.82,1.12-7.01,2.46
				l-2.16-3.9c2.74-1.73,6.28-3.27,10.25-3.27c6.24,0,9.31,3.84,9.31,10.79v14.78h-4.8l-0.45-2.76h-0.16
				c-2.24,1.91-4.8,3.37-7.75,3.37C50.8,51.13,47.8,48.16,47.8,43.81z M62.47,43.83v-5.61c-6.77,0.85-9.03,2.62-9.03,5.14
				c0,2.21,1.5,3.17,3.6,3.17C59.08,46.53,60.62,45.54,62.47,43.83z"/>
		</g>
		<g>
			<path class="st40" d="M75.42,42.1V30.21h-3.56v-4.39l3.86-0.26l0.69-6.81h4.86v6.81h6.36v4.66h-6.36v11.88
				c0,2.94,1.14,4.38,3.54,4.38c0.85,0,1.87-0.28,2.6-0.57l1,4.31c-1.36,0.45-3.1,0.91-5.1,0.91C77.56,51.13,75.42,47.49,75.42,42.1
				z"/>
		</g>
		<g>
			<path class="st40" d="M92.22,17.87c0-1.97,1.54-3.31,3.62-3.31c2.07,0,3.62,1.34,3.62,3.31c0,1.93-1.54,3.31-3.62,3.31
				C93.77,21.18,92.22,19.8,92.22,17.87z M92.89,25.55h5.86v24.96h-5.86V25.55z"/>
		</g>
		<g>
			<path class="st40" d="M104.56,38.05c0-8.11,5.63-13.11,11.51-13.11c6.75,0,10.31,4.88,10.31,11.85c0,1.12-0.12,2.24-0.25,2.85
				h-15.85c0.49,4.43,3.33,6.95,7.36,6.95c2.13,0,3.96-0.67,5.79-1.81l1.99,3.64c-2.38,1.61-5.39,2.7-8.56,2.7
				C109.97,51.13,104.56,46.29,104.56,38.05z M121.31,35.65c0-3.84-1.71-6.18-5.12-6.18c-2.91,0-5.47,2.18-5.98,6.18H121.31z"/>
		</g>
		<g>
			<path class="st40" d="M131.97,25.55h4.8l0.45,3.37h0.16c2.24-2.17,4.78-3.98,8.19-3.98c5.35,0,7.68,3.62,7.68,9.92v15.65h-5.86
				v-14.9c0-4.11-1.18-5.65-3.88-5.65c-2.2,0-3.64,1.08-5.69,3.11v17.44h-5.86V25.55z"/>
		</g>
		<g>
			<path class="st40" d="M161.31,42.1V30.21h-3.56v-4.39l3.86-0.26l0.69-6.81h4.86v6.81h6.36v4.66h-6.36v11.88
				c0,2.94,1.14,4.38,3.54,4.38c0.85,0,1.87-0.28,2.6-0.57l1,4.31c-1.36,0.45-3.1,0.91-5.1,0.91
				C163.44,51.13,161.31,47.49,161.31,42.1z"/>
		</g>
		<g>
			<path class="st40" d="M175.79,47.65l2.72-3.72c2.22,1.73,4.36,2.79,6.89,2.79c2.72,0,4-1.28,4-2.99c0-2.09-2.7-3.03-5.37-4.05
				c-3.27-1.23-7.01-3.11-7.01-7.28c0-4.33,3.5-7.46,9.09-7.46c3.48,0,6.26,1.41,8.29,2.99l-2.68,3.6
				c-1.75-1.28-3.51-2.17-5.47-2.17c-2.51,0-3.7,1.2-3.7,2.76c0,1.97,2.52,2.72,5.22,3.72c3.37,1.26,7.16,2.89,7.16,7.54
				c0,4.29-3.39,7.75-9.7,7.75C181.83,51.13,178.23,49.66,175.79,47.65z"/>
		</g>
		<g>
			<path class="st40" d="M208.06,41.77c0-10.37,15.35-11.2,15.35-18.01c0-1.75-0.8-3.11-2.7-3.11c-2.08,0-3.55,1.73-3.55,4.27
				c0,5.73,7,13.46,13.59,17.86c2.69,1.81,5.32,3.09,7.48,3.57l-1.46,4.78c-2.99-0.69-6.29-2.25-9.52-4.56
				c-7.82-5.58-14.99-14.76-14.99-21.6c0-4.57,3.29-8.29,8.38-8.29c4.55,0,7.36,2.85,7.36,7.05c0,8.7-14.33,11.02-14.33,17.71
				c0,3.09,2.44,5.16,5.73,5.16c2.54,0,5.08-1.46,7.26-3.64c2.66-2.76,4.72-6.38,5.92-10.79h5.37c-1.48,4.98-3.8,9.55-7.24,13.48
				c-2.97,3.27-6.89,5.49-12.01,5.49C212.03,51.13,208.06,47,208.06,41.77z"/>
		</g>
	</g>
	<g>
		<g>
			<path class="st40" d="M256.65,35c0-10.88,6.81-17.34,15.23-17.34c4.17,0,7.48,1.99,9.57,4.21l-3.15,3.8
				c-1.71-1.71-3.7-2.89-6.3-2.89c-5.41,0-9.29,4.57-9.29,12.03c0,7.58,3.58,12.18,9.15,12.18c2.95,0,5.22-1.36,7.09-3.42l3.15,3.7
				c-2.69,3.13-6.16,4.84-10.47,4.84C263.27,52.12,256.65,46,256.65,35z"/>
		</g>
		<g>
			<path class="st40" d="M285.82,44.8c0-5.35,4.43-8.13,14.68-9.23c-0.08-2.68-1.16-4.92-4.53-4.92c-2.48,0-4.82,1.12-7.01,2.46
				l-2.16-3.9c2.74-1.73,6.28-3.27,10.25-3.27c6.24,0,9.31,3.84,9.31,10.79v14.78h-4.8l-0.45-2.76h-0.16
				c-2.24,1.91-4.8,3.37-7.75,3.37C288.82,52.12,285.82,49.15,285.82,44.8z M300.49,44.82v-5.61c-6.77,0.85-9.03,2.62-9.03,5.14
				c0,2.21,1.5,3.17,3.6,3.17C297.1,47.52,298.64,46.53,300.49,44.82z"/>
		</g>
		<g>
			<path class="st40" d="M313.38,26.54h4.8l0.45,4.45h0.16c1.78-3.25,4.42-5.06,7.09-5.06c1.27,0,2.07,0.16,2.83,0.51l-1.02,5.08
				c-0.87-0.24-1.52-0.41-2.56-0.41c-1.99,0-4.39,1.36-5.9,5.16v15.23h-5.86V26.54z"/>
		</g>
		<g>
			<path class="st40" d="M330.18,39.04c0-8.11,5.63-13.11,11.51-13.11c6.75,0,10.31,4.88,10.31,11.85c0,1.12-0.12,2.24-0.25,2.85
				h-15.85c0.49,4.43,3.33,6.95,7.36,6.95c2.13,0,3.96-0.67,5.79-1.81l1.99,3.64c-2.38,1.61-5.39,2.7-8.56,2.7
				C335.59,52.12,330.18,47.28,330.18,39.04z M346.93,36.65c0-3.84-1.71-6.18-5.12-6.18c-2.91,0-5.47,2.18-5.98,6.18H346.93z"/>
		</g>
		<g>
			<path class="st40" d="M355.38,56.04c0-2.1,1.3-3.94,3.6-5.33v-0.2c-1.28-0.83-2.26-2.16-2.26-4.17c0-1.93,1.32-3.64,2.77-4.66
				v-0.2c-1.71-1.26-3.29-3.64-3.29-6.59c0-5.73,4.63-8.97,9.86-8.97c1.38,0,2.68,0.24,3.7,0.61h8.92v4.35h-4.55
				c0.81,0.93,1.42,2.48,1.42,4.19c0,5.55-4.21,8.52-9.49,8.52c-1.06,0-2.26-0.22-3.37-0.66c-0.75,0.64-1.22,1.27-1.22,2.39
				c0,1.4,1.02,2.26,4.05,2.26h4.44c5.97,0,9.14,1.85,9.14,6.16c0,4.92-5.16,8.8-13.32,8.8C359.81,62.55,355.38,60.41,355.38,56.04z
				 M373.43,54.7c0-1.93-1.55-2.5-4.4-2.5h-3.43c-1.34,0-2.42-0.1-3.37-0.34c-1.34,1.02-1.93,2.13-1.93,3.29
				c0,2.28,2.44,3.6,6.36,3.6C370.68,58.74,373.43,56.85,373.43,54.7z M370.38,34.9c0-3.13-1.89-4.92-4.33-4.92
				c-2.44,0-4.33,1.77-4.33,4.92c0,3.17,1.93,5.02,4.33,5.02C368.45,39.92,370.38,38.07,370.38,34.9z"/>
		</g>
		<g>
			<path class="st40" d="M382.84,18.86c0-1.97,1.54-3.31,3.62-3.31s3.62,1.34,3.62,3.31c0,1.93-1.54,3.31-3.62,3.31
				S382.84,20.79,382.84,18.86z M383.51,26.54h5.86v24.96h-5.86V26.54z"/>
		</g>
		<g>
			<path class="st40" d="M393.71,26.54h5.94l3.96,12.95c0.69,2.46,1.42,5.02,2.11,7.52h0.2c0.69-2.5,1.42-5.06,2.11-7.52l3.96-12.95
				h5.65l-8.48,24.96h-6.77L393.71,26.54z"/>
		</g>
		<g>
			<path class="st40" d="M420.03,39.04c0-8.11,5.63-13.11,11.51-13.11c6.75,0,10.31,4.88,10.31,11.85c0,1.12-0.12,2.24-0.25,2.85
				h-15.85c0.49,4.43,3.33,6.95,7.36,6.95c2.13,0,3.96-0.67,5.79-1.81l1.99,3.64c-2.38,1.61-5.39,2.7-8.56,2.7
				C425.44,52.12,420.03,47.28,420.03,39.04z M436.78,36.65c0-3.84-1.71-6.18-5.12-6.18c-2.91,0-5.47,2.18-5.98,6.18H436.78z"/>
		</g>
		<g>
			<path class="st40" d="M447.44,26.54h4.8l0.45,4.45h0.16c1.78-3.25,4.42-5.06,7.09-5.06c1.27,0,2.07,0.16,2.83,0.51l-1.02,5.08
				c-0.87-0.24-1.52-0.41-2.56-0.41c-1.99,0-4.39,1.36-5.9,5.16v15.23h-5.86V26.54z"/>
		</g>
		<g>
			<path class="st40" d="M463.61,48.64l2.72-3.72c2.22,1.73,4.36,2.79,6.89,2.79c2.72,0,4-1.28,4-2.99c0-2.09-2.7-3.03-5.37-4.05
				c-3.27-1.23-7.01-3.11-7.01-7.28c0-4.33,3.5-7.46,9.09-7.46c3.48,0,6.26,1.41,8.29,2.99l-2.68,3.6
				c-1.75-1.28-3.51-2.17-5.47-2.17c-2.51,0-3.7,1.2-3.7,2.76c0,1.97,2.52,2.72,5.22,3.72c3.37,1.26,7.16,2.89,7.16,7.54
				c0,4.29-3.39,7.75-9.7,7.75C469.65,52.12,466.05,50.65,463.61,48.64z"/>
		</g>
	</g>
</g>
<g>
	<g>
		<path class="st40" d="M842.65,551.23h20.9v5.16h-14.76v9.81h12.56v5.16h-12.56v14.45h-6.13V551.23z"/>
	</g>
	<g>
		<path class="st40" d="M866.53,572.85c0-8.65,5.88-13.64,12.35-13.64c6.47,0,12.35,4.99,12.35,13.64c0,8.61-5.88,13.6-12.35,13.6
			C872.41,586.45,866.53,581.46,866.53,572.85z M884.97,572.85c0-5.2-2.28-8.67-6.09-8.67c-3.81,0-6.09,3.47-6.09,8.67
			c0,5.2,2.28,8.63,6.09,8.63C882.69,581.48,884.97,578.05,884.97,572.85z"/>
	</g>
	<g>
		<path class="st40" d="M896.97,576.13v-16.29h6.09v15.5c0,4.27,1.23,5.88,4.04,5.88c2.28,0,3.79-1.06,5.75-3.6v-17.79h6.09v25.97
			h-4.99l-0.47-3.83h-0.17c-2.28,2.71-4.8,4.46-8.35,4.46C899.41,586.45,896.97,582.68,896.97,576.13z"/>
	</g>
	<g>
		<path class="st40" d="M926.67,559.84h4.99l0.47,3.51h0.17c2.33-2.26,4.97-4.15,8.52-4.15c5.56,0,7.99,3.77,7.99,10.32v16.29h-6.09
			v-15.5c0-4.27-1.23-5.88-4.04-5.88c-2.28,0-3.79,1.12-5.92,3.24v18.15h-6.09V559.84z"/>
	</g>
	<g>
		<path class="st40" d="M954.7,572.85c0-8.46,5.31-13.64,11-13.64c2.94,0,4.8,1.1,6.81,2.86l-0.23-4.19v-9.41h6.09v37.35h-4.99
			l-0.46-2.81h-0.17c-1.92,1.92-4.59,3.45-7.38,3.45C958.88,586.45,954.7,581.41,954.7,572.85z M972.27,578.49v-12.1
			c-1.78-1.59-3.53-2.16-5.29-2.16c-3.3,0-6.03,3.13-6.03,8.54c0,5.65,2.16,8.63,5.9,8.63
			C968.87,581.41,970.56,580.53,972.27,578.49z"/>
	</g>
	<g>
		<path class="st40" d="M984.71,578.83c0-5.56,4.61-8.46,15.27-9.6c-0.08-2.79-1.21-5.12-4.72-5.12c-2.58,0-5.01,1.16-7.3,2.56
			l-2.24-4.06c2.86-1.8,6.54-3.4,10.66-3.4c6.49,0,9.69,4,9.69,11.23v15.38h-4.99l-0.47-2.88h-0.17c-2.33,1.99-4.99,3.51-8.06,3.51
			C987.84,586.45,984.71,583.36,984.71,578.83z M999.98,578.85v-5.84c-7.04,0.89-9.39,2.73-9.39,5.35c0,2.29,1.57,3.3,3.74,3.3
			C996.45,581.67,998.05,580.63,999.98,578.85z"/>
	</g>
	<g>
		<path class="st40" d="M1013.45,577.06v-12.37h-3.7v-4.57l4.02-0.28l0.72-7.09h5.05v7.09h6.62v4.84h-6.62v12.36
			c0,3.06,1.18,4.56,3.68,4.56c0.89,0,1.95-0.3,2.71-0.59l1.04,4.48c-1.42,0.47-3.23,0.95-5.31,0.95
			C1015.67,586.45,1013.45,582.66,1013.45,577.06z"/>
	</g>
	<g>
		<path class="st40" d="M1030.93,551.85c0-2.05,1.61-3.45,3.76-3.45s3.76,1.4,3.76,3.45c0,2.01-1.61,3.45-3.76,3.45
			S1030.93,553.85,1030.93,551.85z M1031.63,559.84h6.09v25.97h-6.09V559.84z"/>
	</g>
	<g>
		<path class="st40" d="M1043.77,572.85c0-8.65,5.88-13.64,12.35-13.64s12.35,4.99,12.35,13.64c0,8.61-5.88,13.6-12.35,13.6
			S1043.77,581.46,1043.77,572.85z M1062.22,572.85c0-5.2-2.28-8.67-6.09-8.67c-3.81,0-6.09,3.47-6.09,8.67
			c0,5.2,2.28,8.63,6.09,8.63C1059.93,581.48,1062.22,578.05,1062.22,572.85z"/>
	</g>
	<g>
		<path class="st40" d="M1074.52,559.84h4.99l0.47,3.51h0.17c2.33-2.26,4.97-4.15,8.52-4.15c5.56,0,7.99,3.77,7.99,10.32v16.29
			h-6.09v-15.5c0-4.27-1.23-5.88-4.04-5.88c-2.28,0-3.79,1.12-5.92,3.24v18.15h-6.09V559.84z"/>
	</g>
	<g>
		<path class="st40" d="M1101.55,582.83l2.83-3.87c2.31,1.8,4.54,2.9,7.17,2.9c2.83,0,4.17-1.33,4.17-3.11
			c0-2.18-2.81-3.15-5.58-4.21c-3.41-1.28-7.3-3.24-7.3-7.57c0-4.5,3.64-7.76,9.45-7.76c3.62,0,6.51,1.47,8.63,3.11l-2.79,3.74
			c-1.82-1.33-3.65-2.26-5.69-2.26c-2.61,0-3.85,1.25-3.85,2.88c0,2.05,2.62,2.83,5.44,3.87c3.51,1.31,7.44,3,7.44,7.85
			c0,4.46-3.53,8.06-10.09,8.06C1107.83,586.45,1104.08,584.92,1101.55,582.83z"/>
	</g>
</g>
<g>
	<g>
		<path class="st40" d="M603.35,17.8h11.65c7.19,0,12.73,2.54,12.73,10.26c0,7.43-5.54,10.81-12.73,10.81h-5.52v13.52h-6.13V17.8z
			 M614.37,33.96c4.74,0,7.32-1.97,7.32-5.9c0-3.98-2.58-5.35-7.32-5.35h-4.89v11.25H614.37z M613.85,37.22l4.44-3.66l10.8,18.81
			h-6.9L613.85,37.22z"/>
	</g>
	<g>
		<path class="st40" d="M631.89,39.41c0-8.44,5.86-13.64,11.97-13.64c7.02,0,10.72,5.08,10.72,12.33c0,1.16-0.13,2.33-0.26,2.96
			h-16.49c0.51,4.61,3.47,7.23,7.66,7.23c2.22,0,4.12-0.7,6.03-1.88l2.07,3.79c-2.47,1.67-5.61,2.81-8.9,2.81
			C637.51,53.01,631.89,47.98,631.89,39.41z M649.31,36.92c0-4-1.78-6.43-5.33-6.43c-3.02,0-5.69,2.26-6.22,6.43H649.31z"/>
	</g>
	<g>
		<path class="st40" d="M657.83,49.4l2.83-3.87c2.31,1.8,4.54,2.9,7.17,2.9c2.83,0,4.17-1.33,4.17-3.11c0-2.18-2.81-3.15-5.58-4.21
			c-3.41-1.28-7.3-3.24-7.3-7.57c0-4.5,3.64-7.76,9.45-7.76c3.62,0,6.51,1.47,8.63,3.11l-2.79,3.74c-1.82-1.33-3.65-2.26-5.69-2.26
			c-2.61,0-3.85,1.25-3.85,2.88c0,2.05,2.62,2.83,5.44,3.87c3.51,1.31,7.44,3,7.44,7.85c0,4.46-3.53,8.06-10.09,8.06
			C664.11,53.01,660.37,51.49,657.83,49.4z"/>
	</g>
	<g>
		<path class="st40" d="M681.48,39.41c0-8.44,5.86-13.64,11.97-13.64c7.02,0,10.72,5.08,10.72,12.33c0,1.16-0.13,2.33-0.26,2.96
			h-16.49c0.51,4.61,3.47,7.23,7.66,7.23c2.22,0,4.12-0.7,6.03-1.88l2.07,3.79c-2.47,1.67-5.61,2.81-8.9,2.81
			C687.11,53.01,681.48,47.98,681.48,39.41z M698.91,36.92c0-4-1.78-6.43-5.33-6.43c-3.02,0-5.69,2.26-6.22,6.43H698.91z"/>
	</g>
	<g>
		<path class="st40" d="M707.98,45.4c0-5.56,4.61-8.46,15.27-9.6c-0.08-2.79-1.21-5.12-4.72-5.12c-2.58,0-5.01,1.16-7.3,2.56
			l-2.24-4.06c2.86-1.8,6.54-3.4,10.66-3.4c6.49,0,9.69,4,9.69,11.23v15.38h-4.99l-0.47-2.88h-0.17c-2.33,1.99-4.99,3.51-8.06,3.51
			C711.11,53.01,707.98,49.92,707.98,45.4z M723.25,45.42v-5.84c-7.04,0.89-9.39,2.73-9.39,5.35c0,2.29,1.57,3.3,3.74,3.3
			C719.71,48.23,721.32,47.2,723.25,45.42z"/>
	</g>
	<g>
		<path class="st40" d="M736.66,26.41h4.99l0.47,4.63h0.17c1.85-3.38,4.6-5.27,7.38-5.27c1.32,0,2.16,0.17,2.94,0.53l-1.06,5.29
			c-0.91-0.25-1.59-0.42-2.66-0.42c-2.07,0-4.57,1.42-6.13,5.37v15.84h-6.09V26.41z"/>
	</g>
	<g>
		<path class="st40" d="M754.14,39.41c0-8.65,6.11-13.64,13.03-13.64c3.3,0,5.71,1.27,7.59,2.92l-2.96,3.95
			c-1.37-1.21-2.69-1.9-4.31-1.9c-4.19,0-7.09,3.47-7.09,8.67s2.86,8.63,6.9,8.63c2.03,0,3.89-0.99,5.37-2.24l2.47,4.02
			c-2.43,2.16-5.52,3.19-8.48,3.19C759.57,53.01,754.14,48.02,754.14,39.41z"/>
	</g>
	<g>
		<path class="st40" d="M780.28,15.03h6.09v9.67l-0.25,5.01c2.18-2.05,4.76-3.93,8.31-3.93c5.56,0,7.99,3.76,7.99,10.32v16.29h-6.09
			v-15.5c0-4.27-1.23-5.88-4.04-5.88c-2.28,0-3.79,1.12-5.92,3.24v18.15h-6.09V15.03z"/>
	</g>
	<g>
		<path class="st40" d="M808.07,39.41c0-8.44,5.86-13.64,11.97-13.64c7.02,0,10.72,5.08,10.72,12.33c0,1.16-0.13,2.33-0.26,2.96
			h-16.49c0.51,4.61,3.47,7.23,7.66,7.23c2.22,0,4.12-0.7,6.03-1.88l2.07,3.79c-2.47,1.67-5.61,2.81-8.9,2.81
			C813.7,53.01,808.07,47.98,808.07,39.41z M825.5,36.92c0-4-1.78-6.43-5.33-6.43c-3.02,0-5.69,2.26-6.22,6.43H825.5z"/>
	</g>
	<g>
		<path class="st40" d="M836.59,26.41h4.99l0.47,4.63h0.17c1.85-3.38,4.6-5.27,7.38-5.27c1.32,0,2.16,0.17,2.94,0.53l-1.06,5.29
			c-0.91-0.25-1.59-0.42-2.66-0.42c-2.07,0-4.57,1.42-6.13,5.37v15.84h-6.09V26.41z"/>
	</g>
	<g>
		<path class="st40" d="M853.42,49.4l2.83-3.87c2.31,1.8,4.54,2.9,7.17,2.9c2.83,0,4.17-1.33,4.17-3.11c0-2.18-2.81-3.15-5.58-4.21
			c-3.41-1.28-7.3-3.24-7.3-7.57c0-4.5,3.64-7.76,9.45-7.76c3.62,0,6.51,1.47,8.63,3.11L870,32.62c-1.82-1.33-3.65-2.26-5.69-2.26
			c-2.61,0-3.85,1.25-3.85,2.88c0,2.05,2.62,2.83,5.44,3.87c3.51,1.31,7.44,3,7.44,7.85c0,4.46-3.53,8.06-10.09,8.06
			C859.7,53.01,855.96,51.49,853.42,49.4z"/>
	</g>
</g>
<g>
	<g>
		<path class="st40" d="M386.68,568.64c0-11.32,7.09-18.04,15.84-18.04c4.34,0,7.78,2.07,9.96,4.38l-3.28,3.96
			c-1.78-1.78-3.85-3-6.56-3c-5.63,0-9.67,4.76-9.67,12.52c0,7.89,3.72,12.67,9.52,12.67c3.07,0,5.44-1.42,7.38-3.55l3.28,3.85
			c-2.8,3.26-6.41,5.03-10.89,5.03C393.57,586.45,386.68,580.08,386.68,568.64z"/>
	</g>
	<g>
		<path class="st40" d="M418.42,579.13v-30.67h6.09v30.99c0,1.5,0.68,2.03,1.31,2.03c0.27,0,0.49,0,0.95-0.11l0.76,4.55
			c-0.74,0.3-1.76,0.53-3.21,0.53C420.01,586.45,418.42,583.66,418.42,579.13z"/>
	</g>
	<g>
		<path class="st40" d="M432.06,551.85c0-2.05,1.61-3.45,3.76-3.45c2.16,0,3.76,1.4,3.76,3.45c0,2.01-1.61,3.45-3.76,3.45
			C433.66,555.29,432.06,553.85,432.06,551.85z M432.75,559.84h6.09v25.97h-6.09V559.84z"/>
	</g>
	<g>
		<path class="st40" d="M446.61,559.84h4.99l0.47,3.51h0.17c2.33-2.26,4.97-4.15,8.52-4.15c5.56,0,7.99,3.76,7.99,10.32v16.29h-6.09
			v-15.5c0-4.27-1.23-5.88-4.04-5.88c-2.28,0-3.79,1.12-5.92,3.24v18.15h-6.09V559.84z"/>
	</g>
	<g>
		<path class="st40" d="M475.52,551.85c0-2.05,1.61-3.45,3.76-3.45s3.76,1.4,3.76,3.45c0,2.01-1.61,3.45-3.76,3.45
			S475.52,553.85,475.52,551.85z M476.22,559.84h6.09v25.97h-6.09V559.84z"/>
	</g>
	<g>
		<path class="st40" d="M488.36,572.85c0-8.65,6.11-13.64,13.03-13.64c3.3,0,5.71,1.27,7.59,2.92l-2.96,3.95
			c-1.37-1.21-2.69-1.9-4.31-1.9c-4.19,0-7.09,3.47-7.09,8.67s2.86,8.63,6.9,8.63c2.03,0,3.89-0.99,5.37-2.24l2.47,4.02
			c-2.43,2.16-5.52,3.19-8.48,3.19C493.8,586.45,488.36,581.46,488.36,572.85z"/>
	</g>
	<g>
		<path class="st40" d="M513.8,551.85c0-2.05,1.61-3.45,3.76-3.45s3.76,1.4,3.76,3.45c0,2.01-1.61,3.45-3.76,3.45
			S513.8,553.85,513.8,551.85z M514.5,559.84h6.09v25.97h-6.09V559.84z"/>
	</g>
	<g>
		<path class="st40" d="M526.96,578.83c0-5.56,4.61-8.46,15.27-9.6c-0.08-2.79-1.21-5.12-4.72-5.12c-2.58,0-5.01,1.16-7.3,2.56
			l-2.24-4.06c2.86-1.8,6.54-3.4,10.66-3.4c6.49,0,9.69,4,9.69,11.23v15.38h-4.99l-0.47-2.88h-0.17c-2.33,1.99-4.99,3.51-8.06,3.51
			C530.09,586.45,526.96,583.36,526.96,578.83z M542.23,578.85v-5.84c-7.04,0.89-9.39,2.73-9.39,5.35c0,2.29,1.57,3.3,3.74,3.3
			C538.7,581.67,540.31,580.63,542.23,578.85z"/>
	</g>
	<g>
		<path class="st40" d="M555.64,559.84h4.99l0.47,3.51h0.17c2.33-2.26,4.97-4.15,8.52-4.15c5.56,0,7.99,3.76,7.99,10.32v16.29h-6.09
			v-15.5c0-4.27-1.23-5.88-4.04-5.88c-2.28,0-3.79,1.12-5.92,3.24v18.15h-6.09V559.84z"/>
	</g>
	<g>
		<path class="st40" d="M582.67,582.83l2.83-3.87c2.31,1.8,4.54,2.9,7.17,2.9c2.83,0,4.17-1.33,4.17-3.11
			c0-2.18-2.81-3.15-5.58-4.21c-3.41-1.28-7.3-3.24-7.3-7.57c0-4.5,3.64-7.76,9.45-7.76c3.62,0,6.51,1.47,8.63,3.11l-2.79,3.74
			c-1.82-1.33-3.65-2.26-5.69-2.26c-2.61,0-3.85,1.25-3.85,2.88c0,2.05,2.62,2.83,5.44,3.87c3.51,1.31,7.44,3,7.44,7.85
			c0,4.46-3.53,8.06-10.09,8.06C588.95,586.45,585.21,584.92,582.67,582.83z"/>
	</g>
</g>
<g>
	<path class="st50" d="M1255.4,186.81c0-4.51-0.04-9.02,0.01-13.53c0.04-2.92,1.47-5.04,4.12-6.26c1.18-0.54,2.5-0.66,3.78-0.66
		c8.74-0.03,17.47-0.04,26.21,0c3.11,0.01,5.78,0.94,7.25,4.01c0.47,1,0.69,2.02,0.69,3.11c0,8.88,0.04,17.76-0.02,26.64
		c-0.03,3.88-2.18,6.23-5.99,6.95c-0.99,0.19-1.99,0.24-2.99,0.24c-8.02,0-16.04,0-24.06,0c-1.08,0-2.14-0.06-3.2-0.28
		c-3.55-0.71-5.7-3.09-5.77-6.69C1255.33,195.84,1255.4,191.33,1255.4,186.81z"/>
	<path class="st43" d="M1175.16,207.12c-4.08,0-8.16,0.01-12.24-0.01c-1,0-2.01-0.01-3-0.17c-2.91-0.46-4.74-2.18-5.51-5.01
		c-0.3-1.11-0.4-2.25-0.4-3.4c0.01-7.87,0-15.74,0.01-23.62c0-0.71,0.05-1.43,0.14-2.14c0.44-3.37,2.51-6.03,6.42-6.34
		c0.93-0.07,1.85-0.15,2.78-0.15c7.87-0.01,15.74,0,23.62-0.01c1.22,0,2.42,0.07,3.63,0.3c2.86,0.55,4.91,2.52,5.4,5.38
		c0.2,1.19,0.3,2.42,0.3,3.63c0.03,7.37,0.02,14.74,0,22.11c0,1.14-0.09,2.29-0.25,3.42c-0.45,3.27-2.61,5.43-5.89,5.86
		c-0.92,0.12-1.86,0.13-2.78,0.13C1183.32,207.12,1179.24,207.12,1175.16,207.12z"/>
	<path class="st45" d="M1175.03,256.47c-4.37,0-8.73-0.08-13.1,0.02c-5.36,0.13-7.81-3.21-7.88-7.82
		c-0.07-5.01-0.03-10.02-0.03-15.03c0-2.93,0-5.87,0-8.8c0-0.72-0.01-1.44,0.07-2.14c0.49-4.43,2.99-6.78,7.46-7.02
		c0.71-0.04,1.43-0.03,2.15-0.03c7.66,0,15.32,0,22.97,0c0.86,0,1.72-0.02,2.57,0.06c4.14,0.38,6.5,2.7,6.9,6.83
		c0.13,1.35,0.15,2.71,0.16,4.07c0.01,6.73,0.01,13.46,0,20.18c0,1-0.05,2-0.15,3c-0.45,4.3-2.88,6.6-7.17,6.66
		c-4.65,0.06-9.3,0.01-13.96,0.01C1175.03,256.47,1175.03,256.47,1175.03,256.47z"/>
	<path class="st47" d="M1175.07,305.9c-4.08,0-8.16,0-12.24,0c-0.79,0-1.58,0.01-2.36-0.08c-3.27-0.37-5.37-2.24-6.12-5.42
		c-0.25-1.05-0.35-2.11-0.35-3.19c0.01-7.8,0.01-15.6,0.01-23.4c0-0.43,0-0.86,0.03-1.29c0.35-4.8,2.85-7.36,7.69-7.41
		c8.94-0.1,17.89-0.09,26.83,0c4.11,0.04,6.79,2.12,7.43,5.49c0.22,1.19,0.32,2.42,0.32,3.63c0.03,7.58,0.02,15.17,0.01,22.75
		c0,0.78-0.09,1.57-0.18,2.35c-0.5,4.12-2.93,6.44-7.11,6.53c-4.65,0.1-9.3,0.02-13.95,0.02
		C1175.07,305.88,1175.07,305.89,1175.07,305.9z"/>
	<path class="st51" d="M1276.31,305.91c-4.44,0-8.88-0.11-13.31,0.03c-3.99,0.13-7.74-2.78-7.67-7.61
		c0.13-8.59,0.1-17.18,0.01-25.77c-0.04-3.88,2.37-7.44,7.55-7.48c9.02-0.07,18.04-0.06,27.06,0c5.1,0.03,7.63,3.63,7.57,7.7
		c-0.12,8.44-0.16,16.89,0.01,25.34c0.09,4.6-3.27,8.01-7.91,7.83C1285.19,305.78,1280.75,305.91,1276.31,305.91z"/>
	<path class="st45" d="M1276.32,256.47c-4.51,0-9.02-0.09-13.53,0.02c-4.54,0.11-7.46-3.27-7.43-7.36
		c0.06-8.66-0.03-17.32,0.04-25.98c0.04-4.58,2.72-7.25,7.38-7.46c2.5-0.11,5.01-0.04,7.51-0.05c6.15,0,12.31,0.01,18.46,0
		c1.22,0,2.43,0.09,3.61,0.42c2.85,0.79,4.75,3.06,5.03,6.02c0.05,0.5,0.06,1,0.06,1.5c0,8.37,0,16.75,0,25.12
		c0,1.07-0.03,2.15-0.41,3.18c-1.02,2.81-3.27,4.51-6.36,4.56c-4.79,0.07-9.59,0.02-14.38,0.02
		C1276.32,256.46,1276.32,256.46,1276.32,256.47z"/>
	<path class="st45" d="M1225.72,207.09c-4.72,0-9.45,0.12-14.16-0.04c-3.9-0.13-6.16-2.36-6.76-6.2c-0.11-0.7-0.13-1.43-0.13-2.14
		c-0.01-7.94,0-15.88-0.01-23.83c0-1.3,0.09-2.59,0.52-3.81c0.88-2.48,2.55-4.09,5.24-4.48c0.78-0.11,1.56-0.27,2.34-0.27
		c8.66-0.02,17.32-0.02,25.97,0c0.85,0,1.71,0.13,2.55,0.28c2.73,0.5,4.43,2.15,5.22,4.78c0.35,1.18,0.34,2.4,0.34,3.62
		c0,7.8,0.02,15.6,0,23.4c-0.02,6.36-2.33,8.69-8.66,8.73c-4.15,0.03-8.3,0.01-12.45,0.01
		C1225.72,207.13,1225.72,207.11,1225.72,207.09z"/>
	<path class="st45" d="M1225.72,305.92c-4.29,0-8.59,0-12.88-0.01c-1.14,0-2.28-0.05-3.39-0.42c-2.28-0.77-3.73-2.31-4.38-4.61
		c-0.31-1.11-0.41-2.25-0.41-3.4c0.01-7.94,0-15.88,0-23.83c0-0.57,0.01-1.15,0.07-1.71c0.43-3.94,2.42-6.06,6.31-6.7
		c0.7-0.12,1.42-0.15,2.14-0.15c8.37-0.01,16.74,0,25.11-0.01c1.08,0,2.14,0.13,3.19,0.35c2.72,0.59,4.37,2.27,5.06,4.93
		c0.27,1.05,0.28,2.13,0.28,3.2c0.01,7.94,0.02,15.88,0,23.83c-0.02,6.07-2.43,8.49-8.45,8.53
		C1234.17,305.94,1229.94,305.92,1225.72,305.92z"/>
	<path class="st45" d="M1225.68,256.47c-4.44,0-8.87-0.09-13.31,0.02c-4.62,0.11-7.64-2.81-7.67-7.59
		c-0.06-8.51-0.09-17.03,0.01-25.54c0.06-4.85,2.83-7.62,7.66-7.67c8.94-0.1,17.89-0.11,26.83,0c4.9,0.06,7.55,2.77,7.6,7.67
		c0.08,8.59,0.06,17.17-0.01,25.76c-0.03,3.67-1.65,5.93-4.63,7c-1.04,0.37-2.11,0.34-3.18,0.35
		C1234.55,256.48,1230.11,256.47,1225.68,256.47C1225.68,256.47,1225.68,256.47,1225.68,256.47z"/>
</g>
<polygon class="st35" points="904.94,242.96 1059.17,242.96 1136.29,376.52 1059.17,510.09 904.94,510.09 827.83,376.52 "/>
<polygon class="st32" points="417.52,242.96 571.75,242.96 648.87,376.52 571.75,510.09 417.52,510.09 340.41,376.52 "/>
<polygon class="st34" points="661.23,102.55 815.46,102.55 892.58,236.12 815.46,369.68 661.23,369.68 584.12,236.12 "/>
<g>
	<g>
		<g>
			<g>
				<g>
					<g>
						<path class="st16" d="M1109.94,412.7c-3.83,13.58-9.76,26.27-17.45,37.72h-34.77c-1.17,0-2.16-0.92-2.19-2.11
							c-0.42-14.69-5.17-28.3-13.01-39.63c-0.7-1.02-0.42-2.41,0.61-3.09c8.36-5.42,18.32-8.57,29.02-8.57
							C1086.92,397.02,1100.28,403.01,1109.94,412.7z"/>
					</g>
					<g>
						<circle class="st16" cx="1071.81" cy="364.53" r="24.76"/>
					</g>
				</g>
				<g>
					<g>
						<path class="st16" d="M921.59,408.67C913.74,420,909,433.62,908.58,448.3c-0.04,1.18-1.02,2.11-2.2,2.11h-34.76
							c-7.68-11.44-13.62-24.14-17.45-37.72c9.65-9.69,23.02-15.68,37.77-15.68c10.7,0,20.66,3.15,29.02,8.57
							C922.01,406.26,922.29,407.66,921.59,408.67z"/>
					</g>
					<g>
						<circle class="st16" cx="892.3" cy="364.53" r="24.76"/>
					</g>
				</g>
			</g>
		</g>
	</g>
	<g>
		<path class="st8" d="M1047.13,450.42H916.98c-1.25,0-2.24-1.04-2.2-2.29c0.47-13.95,5.18-26.84,12.89-37.39
			c12.24-16.75,32.04-27.64,54.39-27.64s42.15,10.89,54.39,27.64c7.71,10.55,12.43,23.44,12.89,37.39
			C1049.38,449.38,1048.38,450.42,1047.13,450.42z"/>
	</g>
	<g>
		<circle class="st8" cx="982.06" cy="338.22" r="35.59"/>
	</g>
</g>
<g>
	<g>
		<g>
			<g>
				<path class="st8" d="M493.25,478.12c-15.45,0-38.52-4.48-61.19-25.7c-22.76-21.31-25.82-47.86-27.65-63.72
					c-0.56-4.86-0.52-7.3-0.38-16.37c0.1-6.2,0.25-15.57,0.32-31.31l0.02-6.29c0.05-18.09,16.83-32.81,37.41-32.81h12.91v17.64
					h-12.91c-10.88,0-19.75,6.82-19.77,15.21L422,341.1c-0.07,15.84-0.22,25.28-0.32,31.52c-0.14,8.77-0.17,10.35,0.26,14.07
					c1.75,15.18,4.14,35.98,22.18,52.86c14.9,13.94,31.41,20.93,49.31,20.94c23.76-0.07,40.09-13.34,47.06-19.01
					c22.38-18.19,26.65-41.55,27.19-53.97v-52.68c0-8.41-8.87-15.26-19.77-15.26h-13.89v-17.64h13.89
					c20.63,0,37.41,14.76,37.41,32.9l-0.01,53.23c-0.51,12.35-4.81,43.62-33.7,67.1c-8.42,6.84-28.13,22.87-58.13,22.96
					C493.41,478.12,493.33,478.12,493.25,478.12z"/>
			</g>
		</g>
		<g>
			<g>
				<g>
					<path class="st12" d="M467.45,324.12H440.1c-2.42,0-4.38-1.96-4.38-4.38v-18.42c0-2.42,1.96-4.38,4.38-4.38h27.35
						c2.42,0,4.38,1.96,4.38,4.38v18.42C471.83,322.16,469.87,324.12,467.45,324.12z"/>
				</g>
			</g>
			<g>
				<g>
					<path class="st12" d="M549.17,324.12h-27.35c-2.42,0-4.38-1.96-4.38-4.38v-18.42c0-2.42,1.96-4.38,4.38-4.38h27.35
						c2.42,0,4.38,1.96,4.38,4.38v18.42C553.55,322.16,551.59,324.12,549.17,324.12z"/>
				</g>
			</g>
		</g>
		<g>
			<g>
				<path class="st8" d="M507.4,510.85c-3.94,0.36-7.93,0.55-11.96,0.55c-2.17,0-4.32-0.05-6.47-0.16
					c-2.19-7.24-3.63-14.86-4.22-22.74c-0.22-2.75-0.33-5.52-0.33-8.33h17.64c0,2.81,0.13,5.6,0.38,8.33
					C503.16,496.35,504.85,503.86,507.4,510.85z"/>
			</g>
		</g>
		<g>
			<g>
				<path class="st12" d="M511.42,488.49h-35.11c-2.42,0-4.38-1.96-4.38-4.38v-29.63c0-2.42,1.96-4.38,4.38-4.38h35.11
					c2.42,0,4.38,1.96,4.38,4.38v29.63C515.8,486.53,513.84,488.49,511.42,488.49z"/>
			</g>
		</g>
	</g>
</g>
<g>
	<g>
		<g>
			<path class="st36" d="M338.68,302.48h-88.5c-0.85,0-1.52-0.71-1.5-1.56c0.32-9.49,3.52-18.25,8.77-25.42
				c8.32-11.39,21.79-18.79,36.98-18.79c15.19,0,28.66,7.4,36.98,18.79c5.24,7.18,8.45,15.94,8.77,25.42
				C340.21,301.78,339.53,302.48,338.68,302.48z"/>
		</g>
		<g>
			<circle class="st36" cx="294.43" cy="226.2" r="24.2"/>
		</g>
	</g>
	<g>
		<g>
			<path class="st8" d="M283.9,302.73H166.56c-1.13,0-2.02-0.94-1.98-2.06c0.42-12.58,4.67-24.19,11.62-33.71
				c11.04-15.1,28.89-24.92,49.03-24.92s38,9.81,49.03,24.92c6.95,9.51,11.2,21.13,11.62,33.71
				C285.92,301.79,285.03,302.73,283.9,302.73z"/>
		</g>
		<g>
			<circle class="st8" cx="225.23" cy="201.59" r="32.09"/>
		</g>
	</g>
</g>
<g>
	<g>
		<g>
			<path class="st41" d="M774.85,169.02h-72.19c-2.66,0-4.82-2.16-4.82-4.82c0-2.66,2.16-4.82,4.82-4.82h72.19
				c2.66,0,4.82,2.16,4.82,4.82C779.67,166.86,777.51,169.02,774.85,169.02z"/>
		</g>
		<g>
			<path class="st41" d="M774.85,196.57h-72.19c-2.66,0-4.82-2.16-4.82-4.82s2.16-4.82,4.82-4.82h72.19c2.66,0,4.82,2.16,4.82,4.82
				S777.51,196.57,774.85,196.57z"/>
		</g>
		<g>
			<path class="st41" d="M761.08,224.12h-44.64c-2.66,0-4.82-2.16-4.82-4.82s2.16-4.82,4.82-4.82h44.64c2.66,0,4.82,2.16,4.82,4.82
				S763.74,224.12,761.08,224.12z"/>
		</g>
	</g>
	<g>
		<g>
			<path class="st41" d="M775.07,313.09l-72.19,0.2c-2.66,0.01-4.83-2.14-4.83-4.81c-0.01-2.66,2.14-4.83,4.81-4.83l72.19-0.2
				c2.66-0.01,4.83,2.14,4.83,4.81C779.88,310.92,777.73,313.09,775.07,313.09z"/>
		</g>
		<g>
			<path class="st41" d="M774.99,285.54l-72.19,0.2c-2.66,0.01-4.83-2.14-4.83-4.81s2.14-4.83,4.81-4.83l72.19-0.2
				c2.66-0.01,4.83,2.14,4.83,4.81C779.8,283.37,777.65,285.54,774.99,285.54z"/>
		</g>
		<g>
			<path class="st41" d="M761.14,258.03l-44.64,0.13c-2.66,0.01-4.83-2.14-4.83-4.81c-0.01-2.66,2.14-4.83,4.81-4.83l44.64-0.13
				c2.66-0.01,4.83,2.14,4.83,4.81C765.95,255.86,763.8,258.03,761.14,258.03z"/>
		</g>
	</g>
	<path class="st8" d="M779.8,282.56c-0.05-17.46-11.26-33.75-31.77-46.48c20.47-12.79,31.64-29.11,31.64-46.57v-40.7
		c0-2.66-2.16-4.82-4.82-4.82c-2.66,0-4.82,2.16-4.82,4.82v40.7c0,14.95-11.51,29.83-31.69,41.09
		c-20.21-11.21-31.76-26.06-31.8-41.01l-0.11-40.7c-0.01-2.66-2.17-4.81-4.83-4.81c-2.66,0.01-4.81,2.17-4.81,4.83l0.11,40.7
		c0.05,17.46,11.26,33.75,31.77,46.48c-20.47,12.79-31.64,29.11-31.64,46.57v40.73c0,2.66,2.16,4.82,4.82,4.82s4.82-2.16,4.82-4.82
		v-40.73c0-14.95,11.51-29.83,31.69-41.09c20.21,11.21,31.76,26.06,31.8,41.01l0.11,40.73c0.01,2.66,2.17,4.81,4.83,4.81
		c2.66-0.01,4.81-2.17,4.81-4.83L779.8,282.56z"/>
</g>
</svg>
