<?xml version="1.0" encoding="utf-8"?>
<!-- Generator: Adobe Illustrator 23.0.2, SVG Export Plug-In . SVG Version: 6.00 Build 0)  -->
<svg version="1.1" id="Layer_1" xmlns="http://www.w3.org/2000/svg" xmlns:xlink="http://www.w3.org/1999/xlink" x="0px" y="0px"
	 viewBox="0 0 387.61 91.61" style="enable-background:new 0 0 387.61 91.61;" xml:space="preserve">
<style type="text/css">
	.st0{fill:none;stroke:#CCCCCC;stroke-width:6;stroke-miterlimit:10;}
	.st1{fill:none;stroke:#000000;stroke-width:10.27;stroke-linecap:round;stroke-miterlimit:10;}
	.st2{fill:#FFFFFF;}
	.st3{fill:none;stroke:#000000;stroke-width:8.558;stroke-linecap:round;stroke-miterlimit:10;}
	.st4{fill:#74BB25;}
	.st5{fill:#568B1B;}
	.st6{fill:#E07900;}
	.st7{fill:#F5A623;}
	.st8{fill:#973080;}
	.st9{fill:#4E0073;}
	.st10{fill:#702662;}
	.st11{fill:#FFFFFF;stroke:#000000;stroke-width:12;stroke-miterlimit:10;}
	.st12{fill:#CC8723;}
	.st13{fill:none;stroke:#E07900;stroke-width:9;stroke-miterlimit:10;}
	.st14{fill:none;stroke:#4E0073;stroke-width:9;stroke-miterlimit:10;}
	.st15{fill:#FFFFFF;stroke:#4E0073;stroke-width:9;stroke-miterlimit:10;}
	.st16{fill:none;stroke:#74BB25;stroke-width:9;stroke-miterlimit:10;}
	.st17{fill:none;stroke:#74BB25;stroke-width:9;stroke-linecap:round;stroke-miterlimit:10;}
	.st18{fill:none;stroke:#74BB25;stroke-width:9;stroke-linecap:round;stroke-linejoin:round;stroke-miterlimit:10;}
	.st19{fill:none;stroke:#74BB25;stroke-width:8;stroke-linecap:round;stroke-miterlimit:10;}
	.st20{fill:none;stroke:#74BB25;stroke-width:5;stroke-linecap:round;stroke-linejoin:round;stroke-miterlimit:10;}
	.st21{fill:none;stroke:#74BB25;stroke-width:6;stroke-linecap:round;stroke-linejoin:round;stroke-miterlimit:10;}
	.st22{fill:#C2C622;}
	.st23{fill:#F2A423;}
	.st24{fill:#F2A422;}
	.st25{fill:#353535;stroke:#CCCCCC;stroke-width:7;stroke-miterlimit:10;}
	.st26{fill:#F1A322;}
	.st27{fill:#498DDE;}
	.st28{fill:#73BA24;}
	.st29{fill:#942F7E;}
	.st30{fill:#32679B;}
	.st31{fill:none;stroke:#497016;stroke-width:9;stroke-linecap:round;stroke-miterlimit:10;}
	.st32{fill:none;stroke:#FFFFFF;stroke-width:9;stroke-miterlimit:10;}
	.st33{fill:none;stroke:#FFFFFF;stroke-width:9;stroke-linecap:round;stroke-miterlimit:10;}
	.st34{fill:#353535;}
	.st35{fill:#497016;}
	.st36{fill:#CCCCCC;}
	.st37{fill:#F5A624;}
	.st38{fill:#4C91E2;}
	.st39{fill:#76BD26;}
	.st40{fill:#E7D81C;}
	.st41{fill:#983181;}
</style>
<g>
	<path class="st37" d="M163.53,51.91c-0.37,1.19-0.75,2.38-1.12,3.57c-2.08,6.73-4.16,13.46-6.23,20.19c-0.1,0.33-0.23,0.66-0.3,1
		c-0.11,0.51-0.4,0.71-0.92,0.69c-0.78-0.03-1.57-0.01-2.35-0.01c-3.44,0-6.88,0-10.32,0c-1.16,0-1.17-0.01-1.51-1.11
		c-2.37-7.69-4.73-15.37-7.1-23.06c-0.17-0.56-0.39-1.11-0.74-1.63c0,0.46,0,0.92,0,1.39c0,7.66,0,15.33,0,22.99
		c0,1.56,0.14,1.42-1.39,1.42c-4.66,0-9.32,0.01-13.98,0c-1.66,0-1.56,0.23-1.56-1.52c0-14.5,0-29,0-43.5c0-2.53,0-5.05,0-7.58
		c0-1.24,0.01-1.25,1.3-1.25c6.1,0,12.19,0,18.29,0c1.12,0,1.11,0.01,1.52,1.12c3.55,9.67,7.1,19.35,10.66,29.02
		c0.21,0.56,0.43,1.12,0.64,1.68c0.5-0.13,0.46-0.55,0.57-0.84c3.54-9.86,7.06-19.73,10.58-29.6c0.06-0.16,0.15-0.32,0.18-0.49
		c0.13-0.76,0.59-0.91,1.31-0.9c3.87,0.03,7.75,0.02,11.63,0.02c2.35,0,4.7-0.01,7.05,0c0.94,0,0.94,0.02,0.97,0.92
		c0.01,0.22,0,0.44,0,0.65c0,16.89,0,33.79,0,50.68c0,1.78,0.21,1.58-1.61,1.58c-4.66,0.01-9.32,0-13.98,0
		c-1.28,0-1.29-0.01-1.29-1.27c0-7.58,0-15.15-0.01-22.73C163.82,52.88,163.9,52.39,163.53,51.91z"/>
	<path class="st37" d="M215.46,39.69c0-1.36-0.01-2.74,0-4.11c0.01-1.07,0.02-1.09,1.06-1.09c4.92-0.01,9.84-0.01,14.76,0
		c1.04,0,1.06,0.02,1.06,1.1c0,13.54,0,27.08,0,40.62c0,1.13-0.02,1.14-1.15,1.14c-4.88,0-9.75,0.01-14.63,0
		c-1.08,0-1.09-0.02-1.1-1.06c-0.01-1.34,0-2.67,0-3.97c-0.32-0.16-0.41,0.05-0.49,0.17c-2.07,3.01-4.98,4.71-8.54,5.23
		c-3.42,0.5-6.75,0.17-9.93-1.34c-4.02-1.91-6.69-5.07-8.44-9.06c-2.1-4.79-2.44-9.84-1.97-14.97c0.32-3.46,1.25-6.74,2.97-9.79
		c3.83-6.8,11.22-10,18.79-8.09c2.8,0.71,5.09,2.19,6.82,4.52c0.18,0.24,0.37,0.48,0.56,0.72C215.25,39.72,215.31,39.7,215.46,39.69
		z M215.49,55.96c-0.04-0.52-0.04-1.04-0.12-1.56c-0.07-0.47-0.19-0.94-0.33-1.39c-0.83-2.62-3.09-4.32-5.75-4.27
		c-3.24,0.06-5.09,2.04-5.78,4.25c-0.57,1.82-0.59,3.67-0.11,5.52c0.76,2.91,3.08,4.7,5.98,4.65c2.89-0.05,5.17-1.95,5.83-4.86
		C215.38,57.52,215.51,56.75,215.49,55.96z"/>
	<path class="st37" d="M329.29,34.61c0.33-0.22,0.69-0.12,1.01-0.12c5.53-0.01,11.06,0.01,16.59-0.02c0.78,0,1.28,0.22,1.73,0.85
		c1.86,2.57,3.77,5.11,5.67,7.66c0.25,0.34,0.46,0.73,0.85,0.94c0.46-0.31,0.6-0.79,0.83-1.2c1.42-2.5,2.84-5,4.22-7.51
		c0.28-0.51,0.6-0.75,1.21-0.74c5.75,0.03,11.5,0.02,17.24,0.02c0.08,0,0.17,0.03,0.28,0.05c0.09,0.54-0.32,0.87-0.57,1.24
		c-4.34,6.47-8.69,12.93-13.04,19.4c-0.92,1.36-0.91,1.37,0.05,2.66c4.31,5.8,8.63,11.6,12.94,17.39c0.16,0.21,0.3,0.43,0.46,0.63
		c0.3,0.37,0.42,0.81,0.23,1.22c-0.2,0.46-0.69,0.24-1.05,0.25c-5.31,0.01-10.63-0.01-15.94,0.03c-0.78,0.01-1.28-0.23-1.73-0.86
		c-1.85-2.53-3.74-5.03-5.62-7.54c-0.26-0.34-0.46-0.74-0.93-1.04c-0.99,1.76-1.97,3.5-2.94,5.24c-0.66,1.18-1.34,2.35-1.98,3.53
		c-0.23,0.42-0.47,0.67-1,0.66c-5.88-0.03-11.76-0.03-17.63-0.05c-0.03,0-0.07-0.04-0.12-0.07c-0.03-0.42,0.28-0.7,0.48-1.01
		c4.29-6.76,8.59-13.51,12.89-20.27c0.81-1.27,0.83-1.01-0.09-2.23c-4.5-6.04-9-12.08-13.49-18.12
		C329.65,35.3,329.33,35.04,329.29,34.61z"/>
	<path class="st37" d="M251.05,24.08c2.39,0,4.79,0,7.18,0c1.15,0,1.16,0.01,1.17,1.13c0.01,2.7,0,5.4,0,8.1
		c0,1.13,0.01,1.14,1.15,1.15c1.65,0.01,3.31,0.02,4.96-0.01c0.64-0.01,0.92,0.16,0.92,0.87c-0.03,4.13-0.03,8.27,0,12.4
		c0,0.73-0.3,0.87-0.93,0.86c-1.74-0.03-3.48,0.02-5.22-0.02c-0.69-0.01-0.89,0.24-0.88,0.91c0.03,3.44,0.01,6.88,0.01,10.31
		c0,0.09,0,0.17,0.01,0.26c0.19,2.18,0.95,2.88,3.18,2.9c1.04,0.01,2.09,0.03,3.13-0.01c0.63-0.02,0.94,0.12,0.93,0.86
		c-0.03,4.27-0.02,8.53-0.01,12.8c0,0.44-0.06,0.77-0.62,0.76c-3.91-0.1-7.83,0.32-11.71-0.55c-6.65-1.49-10.33-5.72-11.43-12.32
		c-0.32-1.94-0.4-3.89-0.41-5.85c-0.02-2.87,0-5.75-0.01-8.62c0-1.61,0.1-1.43-1.5-1.44c-0.83-0.01-1.65,0-2.48,0
		c-1.29-0.01-1.3-0.01-1.3-1.25c0-3.87,0-7.75,0-11.62c0-1.23,0.01-1.23,1.18-1.24c1-0.01,2,0.01,3,0c1.08-0.01,1.09-0.02,1.1-1.07
		c0.01-2.57,0-5.14,0-7.7c0-0.3,0.01-0.61,0.01-0.91c0-0.5,0.25-0.7,0.73-0.68c0.35,0.02,0.7,0,1.04,0
		C246.52,24.08,248.78,24.08,251.05,24.08z"/>
	<path class="st37" d="M289.93,42.13c1.26-1.46,2.27-2.71,3.5-3.75c2.47-2.09,5.24-3.55,8.47-4.08c2.08-0.34,2.11-0.32,2.11,1.76
		c0,4.79,0,9.57,0,14.36c0,0.17,0,0.35,0,0.52c0,1.34,0.12,1.31-1.25,1.3c-1.44,0-2.87-0.01-4.31,0c-1.13,0.01-2.25,0.17-3.36,0.42
		c-3.36,0.76-4.95,2.54-5.15,6.39c-0.07,1.39-0.01,2.78-0.01,4.18c0,4.31,0,8.62,0,12.93c0,1.16-0.01,1.18-1.1,1.18
		c-4.92,0.01-9.84,0.01-14.75,0c-1.07,0-1.08-0.02-1.08-1.07c0-13.58,0-27.16,0-40.73c0-1.04,0.02-1.05,1.1-1.06
		c4.92-0.01,9.84-0.01,14.75,0c1.07,0,1.09,0.02,1.09,1.06C289.94,37.63,289.93,39.71,289.93,42.13z"/>
	<path class="st37" d="M325.43,56.04c0,6.57,0,13.15,0,19.72c0,0.3-0.02,0.61,0,0.91c0.03,0.51-0.21,0.69-0.7,0.68
		c-1.31-0.02-2.61,0-3.92,0c-3.61,0-7.23,0-10.84,0c-1.65,0-1.49,0.14-1.49-1.45c0-12.67,0-25.33,0-38c0-0.87,0.03-1.74-0.01-2.61
		c-0.03-0.64,0.23-0.83,0.84-0.81c1.35,0.03,2.7,0.01,4.05,0.01c3.57,0,7.14,0,10.71,0c1.45,0,1.36-0.12,1.36,1.32
		C325.43,42.55,325.43,49.29,325.43,56.04z"/>
	<path class="st38" d="M72.03,16.18c0-2.74-0.02-5.49,0.01-8.23c0.02-1.78,0.89-3.06,2.5-3.81c0.72-0.33,1.52-0.4,2.3-0.4
		c5.31-0.02,10.63-0.02,15.94,0c1.89,0.01,3.52,0.57,4.41,2.44c0.29,0.61,0.42,1.23,0.42,1.89c0,5.4,0.03,10.8-0.01,16.2
		c-0.02,2.36-1.32,3.79-3.64,4.23c-0.6,0.11-1.21,0.14-1.82,0.14c-4.88,0-9.75,0-14.63,0c-0.65,0-1.3-0.04-1.95-0.17
		c-2.16-0.43-3.47-1.88-3.51-4.07C71.99,21.67,72.03,18.92,72.03,16.18z"/>
	<path class="st37" d="M23.23,28.53c-2.48,0-4.96,0.01-7.44,0c-0.61,0-1.22-0.01-1.82-0.1c-1.77-0.28-2.88-1.33-3.35-3.05
		c-0.18-0.67-0.24-1.37-0.24-2.07c0.01-4.79,0-9.57,0.01-14.36c0-0.43,0.03-0.87,0.09-1.3c0.27-2.05,1.53-3.67,3.9-3.86
		c0.56-0.04,1.13-0.09,1.69-0.09c4.79-0.01,9.57,0,14.36-0.01c0.74,0,1.47,0.04,2.21,0.18c1.74,0.34,2.99,1.54,3.28,3.27
		c0.12,0.73,0.18,1.47,0.18,2.21c0.02,4.48,0.02,8.96,0,13.45c0,0.69-0.06,1.39-0.15,2.08c-0.27,1.99-1.59,3.3-3.58,3.57
		c-0.56,0.07-1.13,0.08-1.69,0.08C28.2,28.53,25.71,28.53,23.23,28.53z"/>
	<path class="st39" d="M23.16,58.54c-2.65,0-5.31-0.05-7.96,0.01c-3.26,0.08-4.75-1.95-4.79-4.76c-0.05-3.05-0.02-6.09-0.02-9.14
		c0-1.78,0-3.57,0-5.35c0-0.43,0-0.87,0.04-1.3c0.3-2.7,1.82-4.12,4.53-4.27c0.43-0.02,0.87-0.02,1.31-0.02c4.66,0,9.31,0,13.97,0
		c0.52,0,1.05-0.01,1.57,0.04c2.52,0.23,3.95,1.64,4.2,4.16c0.08,0.82,0.09,1.65,0.09,2.48c0.01,4.09,0.01,8.18,0,12.27
		c0,0.61-0.03,1.22-0.09,1.82c-0.27,2.62-1.75,4.01-4.36,4.05C28.82,58.56,25.99,58.53,23.16,58.54
		C23.16,58.53,23.16,58.54,23.16,58.54z"/>
	<path class="st40" d="M23.18,88.59c-2.48,0-4.96,0-7.44,0c-0.48,0-0.96,0.01-1.43-0.05c-1.99-0.22-3.26-1.36-3.72-3.3
		c-0.15-0.64-0.21-1.28-0.21-1.94c0.01-4.74,0-9.49,0-14.23c0-0.26,0-0.52,0.02-0.78c0.21-2.92,1.73-4.48,4.67-4.51
		c5.44-0.06,10.88-0.05,16.32,0c2.5,0.02,4.13,1.29,4.52,3.34c0.14,0.72,0.19,1.47,0.2,2.21c0.02,4.61,0.01,9.22,0,13.84
		c0,0.48-0.05,0.95-0.11,1.43c-0.3,2.51-1.78,3.92-4.33,3.97c-2.83,0.06-5.66,0.01-8.48,0.01C23.18,88.58,23.18,88.59,23.18,88.59z"
		/>
	<path class="st41" d="M84.74,88.6c-2.7,0-5.4-0.07-8.09,0.02c-2.43,0.08-4.71-1.69-4.66-4.63c0.08-5.22,0.06-10.45,0.01-15.67
		c-0.02-2.36,1.44-4.52,4.59-4.55c5.48-0.04,10.97-0.03,16.45,0c3.1,0.02,4.64,2.21,4.6,4.68c-0.07,5.13-0.09,10.27,0.01,15.41
		c0.06,2.8-1.99,4.87-4.81,4.76C90.14,88.52,87.44,88.6,84.74,88.6z"/>
	<path class="st39" d="M84.75,58.53c-2.74,0-5.48-0.05-8.22,0.01c-2.76,0.07-4.53-1.99-4.52-4.48c0.04-5.27-0.02-10.53,0.02-15.8
		c0.02-2.78,1.65-4.41,4.49-4.54c1.52-0.07,3.05-0.03,4.57-0.03c3.74,0,7.49,0,11.23,0c0.74,0,1.48,0.05,2.2,0.25
		c1.74,0.48,2.89,1.86,3.06,3.66c0.03,0.3,0.04,0.61,0.04,0.91c0,5.09,0,10.18,0,15.27c0,0.65-0.02,1.31-0.25,1.93
		c-0.62,1.71-1.99,2.74-3.87,2.77c-2.92,0.04-5.83,0.01-8.75,0.01C84.75,58.53,84.75,58.53,84.75,58.53z"/>
	<path class="st39" d="M53.98,28.51c-2.87,0-5.74,0.07-8.61-0.02c-2.37-0.08-3.74-1.43-4.11-3.77c-0.07-0.43-0.08-0.87-0.08-1.3
		c-0.01-4.83,0-9.66-0.01-14.49c0-0.79,0.05-1.58,0.32-2.32c0.53-1.51,1.55-2.49,3.18-2.72c0.47-0.07,0.95-0.16,1.42-0.16
		c5.26-0.01,10.53-0.01,15.79,0c0.52,0,1.04,0.08,1.55,0.17c1.66,0.3,2.7,1.31,3.17,2.91c0.21,0.72,0.21,1.46,0.21,2.2
		c0,4.74,0.01,9.48,0,14.23c-0.01,3.87-1.42,5.28-5.27,5.31c-2.52,0.02-5.05,0-7.57,0C53.98,28.53,53.98,28.52,53.98,28.51z"/>
	<path class="st39" d="M53.98,88.6c-2.61,0-5.22,0-7.83,0c-0.7,0-1.39-0.03-2.06-0.26c-1.39-0.47-2.27-1.4-2.66-2.8
		c-0.19-0.68-0.25-1.37-0.25-2.07c0-4.83,0-9.66,0-14.49c0-0.35,0-0.7,0.04-1.04c0.26-2.39,1.47-3.68,3.84-4.07
		c0.43-0.07,0.87-0.09,1.3-0.09c5.09-0.01,10.18,0,15.27-0.01c0.66,0,1.3,0.08,1.94,0.22c1.66,0.36,2.66,1.38,3.08,3
		c0.17,0.64,0.17,1.29,0.17,1.94c0,4.83,0.02,9.66,0,14.49c-0.01,3.69-1.48,5.16-5.14,5.18C59.12,88.62,56.55,88.6,53.98,88.6z"/>
	<path class="st39" d="M53.95,58.54c-2.7,0-5.4-0.05-8.09,0.01c-2.81,0.07-4.65-1.71-4.66-4.61c-0.03-5.18-0.06-10.36,0.01-15.53
		c0.04-2.95,1.72-4.63,4.66-4.67c5.44-0.06,10.88-0.06,16.32,0c2.98,0.03,4.59,1.69,4.62,4.67c0.05,5.22,0.04,10.44,0,15.66
		c-0.02,2.23-1.01,3.61-2.81,4.25c-0.63,0.23-1.29,0.21-1.93,0.21C59.35,58.54,56.65,58.54,53.95,58.54
		C53.95,58.54,53.95,58.54,53.95,58.54z"/>
	<path class="st37" d="M325.5,22.89c0,1.74,0.02,3.48-0.01,5.22c-0.04,2.25-1.06,3.25-3.3,3.27c-3.39,0.02-6.78,0.02-10.17,0
		c-2.24-0.01-3.27-1.02-3.29-3.27c-0.03-3.48-0.03-6.96,0-10.43c0.02-2.23,1.08-3.28,3.3-3.3c3.39-0.03,6.78-0.03,10.17,0
		c2.21,0.02,3.26,1.07,3.3,3.3C325.52,19.41,325.5,21.15,325.5,22.89z"/>
</g>
</svg>
