<?xml version="1.0" encoding="utf-8"?>
<!-- Generator: Adobe Illustrator 23.0.2, SVG Export Plug-In . SVG Version: 6.00 Build 0)  -->
<svg version="1.1" id="Layer_1" xmlns="http://www.w3.org/2000/svg" xmlns:xlink="http://www.w3.org/1999/xlink" x="0px" y="0px"
	 viewBox="0 0 1517.61 306.61" style="enable-background:new 0 0 1517.61 306.61;" xml:space="preserve">
<style type="text/css">
	.st0{fill:none;stroke:#000000;stroke-width:10.27;stroke-linecap:round;stroke-miterlimit:10;}
	.st1{fill:#FFFFFF;}
	.st2{fill:none;stroke:#000000;stroke-width:8.558;stroke-linecap:round;stroke-miterlimit:10;}
	.st3{fill:#FFFFFF;stroke:#000000;stroke-width:12;stroke-miterlimit:10;}
	.st4{fill:#CC8723;}
	.st5{fill:#F5A623;}
	.st6{fill:#74BB25;}
	.st7{fill:#568B1B;}
	.st8{fill:none;stroke:#E07900;stroke-width:9;stroke-miterlimit:10;}
	.st9{fill:#E07900;}
	.st10{fill:#973080;}
	.st11{fill:none;stroke:#4E0073;stroke-width:9;stroke-miterlimit:10;}
	.st12{fill:#FFFFFF;stroke:#4E0073;stroke-width:9;stroke-miterlimit:10;}
	.st13{fill:#4E0073;}
	.st14{fill:#702662;}
	.st15{fill:none;stroke:#74BB25;stroke-width:9;stroke-miterlimit:10;}
	.st16{fill:none;stroke:#74BB25;stroke-width:9;stroke-linecap:round;stroke-miterlimit:10;}
	.st17{fill:none;stroke:#74BB25;stroke-width:9;stroke-linecap:round;stroke-linejoin:round;stroke-miterlimit:10;}
	.st18{fill:none;stroke:#74BB25;stroke-width:8;stroke-linecap:round;stroke-miterlimit:10;}
	.st19{fill:none;stroke:#74BB25;stroke-width:5;stroke-linecap:round;stroke-linejoin:round;stroke-miterlimit:10;}
	.st20{fill:none;stroke:#74BB25;stroke-width:6;stroke-linecap:round;stroke-linejoin:round;stroke-miterlimit:10;}
	.st21{fill:#C2C622;}
</style>
<path class="st6" d="M131.77,289.58c4.05,0,7.35-3.28,7.35-7.35V194.4c0-16.71,9.98-30.31,22.24-30.31h19.17v61.67
	c0,17.13,12.84,31.06,28.61,31.06c15.78,0,28.61-13.93,28.61-31.06v-61.67h27.83v61.67c0,17.13,12.82,31.06,28.61,31.06
	c15.78,0,28.61-13.93,28.61-31.06v-61.67h27.81v61.67c0,17.13,12.84,31.06,28.61,31.06c15.78,0,28.61-13.93,28.61-31.06v-61.67
	h27.83v61.67c0,17.13,12.84,31.06,28.61,31.06c15.78,0,28.61-13.93,28.61-31.06v-61.67h19.17c12.26,0,22.26,13.6,22.26,30.31v87.83
	c0,4.07,3.28,7.35,7.35,7.35c4.05,0,7.35-3.28,7.35-7.35V194.4c0-24.81-16.59-45.01-36.96-45.01H492.9v-39.36
	c0-4.05-3.28-7.35-7.35-7.35h-42.53c-4.05,0-7.35,3.3-7.35,7.35v39.36h-27.83v-39.36c0-4.05-3.28-7.35-7.35-7.35h-42.53
	c-4.05,0-7.35,3.3-7.35,7.35v39.36h-27.81v-39.36c0-4.05-3.3-7.35-7.35-7.35h-42.53c-4.07,0-7.35,3.3-7.35,7.35v39.36h-27.83v-39.36
	c0-4.05-3.3-7.35-7.35-7.35h-42.53c-4.07,0-7.35,3.3-7.35,7.35v39.36h-19.17c-20.36,0-36.94,20.2-36.94,45.01v87.83
	C124.42,286.29,127.7,289.58,131.77,289.58z M478.2,225.75c0,9.03-6.24,16.36-13.91,16.36c-7.68,0-13.91-7.33-13.91-16.36v-61.67
	h27.83V225.75z M450.37,117.38h27.83v32.01h-27.83V117.38z M393.15,225.75c0,9.03-6.24,16.36-13.91,16.36
	c-7.66,0-13.91-7.33-13.91-16.36v-61.67h27.83V225.75z M365.32,117.38h27.83v32.01h-27.83V117.38z M308.11,225.75
	c0,9.03-6.25,16.36-13.91,16.36c-7.68,0-13.91-7.33-13.91-16.36v-61.67h27.83V225.75z M280.28,117.38h27.83v32.01h-27.83V117.38z
	 M223.06,225.75c0,9.03-6.25,16.36-13.91,16.36c-7.68,0-13.91-7.33-13.91-16.36v-61.67h27.83V225.75z M195.23,117.38h27.83v32.01
	h-27.83V117.38z"/>
<path class="st21" d="M647.25,193.22h45.22c4.06,0,7.35-3.29,7.35-7.35s-3.29-7.35-7.35-7.35h-45.22c-4.06,0-7.35,3.29-7.35,7.35
	S643.19,193.22,647.25,193.22z"/>
<path class="st21" d="M633.12,247.12h73.49c4.06,0,7.35-3.29,7.35-7.35s-3.29-7.35-7.35-7.35h-73.49c-4.06,0-7.35,3.29-7.35,7.35
	S629.06,247.12,633.12,247.12z"/>
<path class="st6" d="M607.04,289.58h125.65c9.04,0,17.42-4.49,22.42-12.02c5-7.52,5.9-16.99,2.4-25.32l-43.76-104.17
	c-5.82-13.85-8.77-28.49-8.77-43.52V31.55h5.72c4.06,0,7.35-3.29,7.35-7.35s-3.29-7.35-7.35-7.35h-5.72h-70.22h-5.72
	c-4.06,0-7.35,3.29-7.35,7.35s3.29,7.35,7.35,7.35h5.72v72.99c0,15.03-2.95,29.67-8.77,43.53l-43.76,104.17
	c-3.5,8.33-2.6,17.8,2.4,25.32C589.62,285.08,598,289.58,607.04,289.58z M595.77,257.93l43.76-104.17
	c6.58-15.67,9.92-32.22,9.92-49.22V31.55h40.83v72.99c0,17,3.34,33.56,9.92,49.22l43.76,104.17c1.61,3.84,1.22,8.03-1.09,11.49
	c-2.3,3.47-6.01,5.46-10.17,5.46H607.04c-4.16,0-7.87-1.99-10.17-5.46C594.56,265.96,594.16,261.77,595.77,257.93z"/>
<path class="st6" d="M819.98,289.58h306.31c4.06,0,7.35-3.29,7.35-7.35c0-4.06-3.29-7.35-7.35-7.35h-5.23v-64.97h5.23
	c4.06,0,7.35-3.29,7.35-7.35s-3.29-7.35-7.35-7.35H819.98c-11.63,0-21.1,9.47-21.1,21.1v52.17
	C798.88,280.11,808.34,289.58,819.98,289.58z M813.58,216.31c0-3.53,2.87-6.4,6.4-6.4h286.38v64.97H819.98c-3.53,0-6.4-2.87-6.4-6.4
	V216.31z"/>
<path class="st21" d="M850.95,236.47h171.91c4.06,0,7.35-3.29,7.35-7.35s-3.29-7.35-7.35-7.35H850.95c-4.06,0-7.35,3.29-7.35,7.35
	S846.9,236.47,850.95,236.47z"/>
<path class="st21" d="M928.86,257.07c0,4.06,3.29,7.35,7.35,7.35h134.17c4.06,0,7.35-3.29,7.35-7.35c0-4.06-3.29-7.35-7.35-7.35
	H936.21C932.15,249.72,928.86,253.01,928.86,257.07z"/>
<path class="st6" d="M1092.61,179.29l242.79,107.88c2.43,1.08,4.97,1.59,7.47,1.59c7.08,0,13.84-4.09,16.89-10.96l18.37-41.35
	c2-4.51,2.13-9.52,0.36-14.12c-1.77-4.6-5.23-8.24-9.73-10.24l-242.79-107.88c-3.29-1.47-7.16,0.02-8.62,3.32
	c-1.47,3.3,0.02,7.16,3.32,8.62l4,1.78l-22.75,51.21l-4-1.78c-3.29-1.46-7.16,0.02-8.62,3.32
	C1087.83,173.97,1089.32,177.83,1092.61,179.29z M1136.61,123.23l226.85,100.79c1.32,0.59,2.33,1.65,2.84,2.99
	c0.52,1.34,0.48,2.81-0.11,4.13l-18.37,41.35c-1.21,2.72-4.4,3.94-7.12,2.74l-226.85-100.79L1136.61,123.23z"/>
<path class="st21" d="M1334.86,222.22l-136.26-60.54c-3.29-1.47-7.16,0.02-8.62,3.32c-1.47,3.3,0.02,7.16,3.32,8.62l136.26,60.54
	c0.86,0.38,1.76,0.56,2.65,0.56c2.5,0,4.89-1.45,5.97-3.88C1339.64,227.55,1338.15,223.69,1334.86,222.22z"/>
<path class="st21" d="M1257.44,214.35l-106.35-47.25c-3.29-1.46-7.16,0.02-8.62,3.32c-1.47,3.3,0.02,7.16,3.32,8.62l106.35,47.25
	c0.86,0.38,1.76,0.56,2.65,0.56c2.5,0,4.89-1.45,5.97-3.88C1262.22,219.68,1260.73,215.82,1257.44,214.35z"/>
<path class="st21" d="M477.16,91.97c9.46,0,17.15-7.69,17.15-17.15s-7.69-17.15-17.15-17.15s-17.15,7.69-17.15,17.15
	S467.71,91.97,477.16,91.97z M477.16,65.84c4.95,0,8.98,4.03,8.98,8.98c0,4.95-4.03,8.98-8.98,8.98s-8.98-4.03-8.98-8.98
	C468.18,69.87,472.21,65.84,477.16,65.84z"/>
<path class="st21" d="M435.52,56.86c13.06,0,23.68-10.62,23.68-23.68S448.57,9.5,435.52,9.5c-13.06,0-23.68,10.62-23.68,23.68
	S422.46,56.86,435.52,56.86z M435.52,19.3c7.65,0,13.88,6.23,13.88,13.88s-6.23,13.88-13.88,13.88c-7.65,0-13.88-6.23-13.88-13.88
	S427.86,19.3,435.52,19.3z"/>
</svg>
