<?xml version="1.0" encoding="utf-8"?>
<!-- Generator: Adobe Illustrator 23.0.2, SVG Export Plug-In . SVG Version: 6.00 Build 0)  -->
<svg version="1.1" id="Layer_1" xmlns="http://www.w3.org/2000/svg" xmlns:xlink="http://www.w3.org/1999/xlink" x="0px" y="0px"
	 viewBox="0 0 435.61 435.61" style="enable-background:new 0 0 435.61 435.61;" xml:space="preserve">
<style type="text/css">
	.st0{fill:none;stroke:#000000;stroke-width:10.27;stroke-linecap:round;stroke-miterlimit:10;}
	.st1{fill:#FFFFFF;}
	.st2{fill:none;stroke:#000000;stroke-width:8.558;stroke-linecap:round;stroke-miterlimit:10;}
	.st3{fill:#FFFFFF;stroke:#000000;stroke-width:12;stroke-miterlimit:10;}
	.st4{fill:#CC8723;}
	.st5{fill:#F5A623;}
	.st6{fill:#74BB25;}
	.st7{fill:#568B1B;}
	.st8{fill:none;stroke:#E07900;stroke-width:9;stroke-miterlimit:10;}
	.st9{fill:#E07900;}
	.st10{fill:#973080;}
	.st11{fill:none;stroke:#4E0073;stroke-width:9;stroke-miterlimit:10;}
	.st12{fill:#FFFFFF;stroke:#4E0073;stroke-width:9;stroke-miterlimit:10;}
	.st13{fill:#4E0073;}
	.st14{fill:#702662;}
	.st15{fill:none;stroke:#74BB25;stroke-width:9;stroke-miterlimit:10;}
	.st16{fill:none;stroke:#74BB25;stroke-width:9;stroke-linecap:round;stroke-miterlimit:10;}
	.st17{fill:none;stroke:#74BB25;stroke-width:9;stroke-linecap:round;stroke-linejoin:round;stroke-miterlimit:10;}
	.st18{fill:none;stroke:#74BB25;stroke-width:8;stroke-linecap:round;stroke-miterlimit:10;}
	.st19{fill:none;stroke:#74BB25;stroke-width:5;stroke-linecap:round;stroke-linejoin:round;stroke-miterlimit:10;}
	.st20{fill:none;stroke:#74BB25;stroke-width:6;stroke-linecap:round;stroke-linejoin:round;stroke-miterlimit:10;}
	.st21{fill:#C2C622;}
	.st22{fill:#F2A423;}
	.st23{fill:#F2A422;}
</style>
<g>
	<path class="st22" d="M261.52,412.97c-2.85-7.6-0.32-12.02,5.3-16.09c52.11-37.71,78.79-90.56,89.25-152.52
		c3.23-19.14,3.46-38.64-0.9-57.92c-2.73-12.05-8.76-18.09-22.2-17.35c-14.63,0.8-29.44,2.44-44.03-2.36
		c-32.74-10.75-51.91-42.94-48.6-82.65c2.57-30.81,26.7-54.91,59.75-59.67c48.4-6.98,90.64,17.94,110.48,66.88
		c29.89,73.77,17.8,144.19-20.63,211.23C360.45,353.94,317.66,390.83,261.52,412.97z"/>
	<path class="st23" d="M27.84,412.39c-3.17-7.41,0.25-11.84,6.26-16.07c58.23-40.95,85.27-99.02,91.82-168.24
		c1.41-14.88,0.3-29.59-3.17-44.11c-2.47-10.29-8.28-16.05-19.78-14.85c-6.41,0.67-13-0.38-19.43,0.2
		c-53.92,4.83-85.2-48.8-72.37-97.64c9.88-37.61,52.14-57.68,95.57-45.49c44.43,12.47,67.58,46.07,78.34,87.76
		c23.12,89.57-3.82,166.98-63.06,234.71C95.51,378.99,60.51,401.37,27.84,412.39z"/>
</g>
</svg>
